<?xml version="1.0" standalone="no"?>
<!DOCTYPE svg PUBLIC "-//W3C//DTD SVG 20010904//EN"
 "http://www.w3.org/TR/2001/REC-SVG-20010904/DTD/svg10.dtd">
<svg version="1.0" xmlns="http://www.w3.org/2000/svg"
 width="512.000000pt" height="512.000000pt" viewBox="0 0 512.000000 512.000000"
 preserveAspectRatio="xMidYMid meet">

<g transform="translate(0.000000,512.000000) scale(0.100000,-0.100000)"
fill="#000000" stroke="none">
<path d="M2370 5114 c-19 -2 -78 -9 -130 -15 -791 -90 -1522 -586 -1924 -1305
-146 -262 -252 -588 -297 -914 -18 -125 -18 -515 0 -640 105 -762 511 -1409
1146 -1826 609 -400 1377 -517 2090 -317 929 260 1646 1043 1819 1987 156 845
-103 1682 -705 2285 -399 398 -879 639 -1449 726 -100 15 -472 28 -550 19z
m395 -304 c498 -46 977 -263 1348 -610 303 -284 542 -695 640 -1101 49 -201
61 -309 61 -539 0 -230 -12 -338 -61 -539 -78 -325 -246 -653 -471 -921 -296
-354 -732 -624 -1183 -733 -201 -49 -309 -61 -539 -61 -231 0 -338 12 -540 61
-396 96 -810 334 -1087 626 -456 480 -682 1125 -623 1772 54 583 345 1143 790
1518 464 390 1069 582 1665 527z"/>
<path d="M3142 4299 c-30 -5 -88 -21 -130 -35 -167 -55 -154 -44 -966 -853
-424 -423 -773 -779 -805 -821 -295 -393 -293 -946 5 -1337 320 -419 889 -558
1363 -332 173 82 193 100 843 748 340 338 624 629 633 647 33 70 7 152 -61
191 -46 27 -81 29 -132 8 -26 -11 -224 -202 -647 -624 -335 -335 -632 -623
-658 -641 -68 -45 -180 -94 -262 -116 -94 -24 -284 -24 -379 -1 -292 73 -519
294 -602 587 -25 90 -26 317 0 410 26 98 89 220 155 302 32 40 378 391 767
780 678 676 712 708 782 742 101 48 191 63 290 48 290 -45 480 -327 407 -607
-34 -129 -31 -125 -788 -887 -397 -399 -727 -724 -747 -734 -84 -42 -193 -5
-231 79 -23 51 -24 86 -4 135 11 26 198 219 610 632 526 527 594 599 601 633
14 81 -20 145 -91 172 -94 36 -55 69 -733 -608 -677 -676 -665 -662 -693 -818
-35 -198 76 -409 265 -498 150 -72 343 -54 476 44 25 19 369 359 766 757 793
795 783 784 845 968 57 169 50 378 -16 542 -92 226 -289 401 -527 468 -84 24
-256 34 -336 19z"/>
</g>
</svg>
