<?xml version="1.0" standalone="no"?>
<!DOCTYPE svg PUBLIC "-//W3C//DTD SVG 20010904//EN"
 "http://www.w3.org/TR/2001/REC-SVG-20010904/DTD/svg10.dtd">
<svg version="1.0" xmlns="http://www.w3.org/2000/svg"
 width="512.000000pt" height="512.000000pt" viewBox="0 0 512.000000 512.000000"
 preserveAspectRatio="xMidYMid meet">

<g transform="translate(0.000000,512.000000) scale(0.100000,-0.100000)"
fill="#000000" stroke="none">
<path d="M1020 5101 c-177 -56 -325 -182 -404 -343 -81 -164 -76 2 -76 -2188
0 -2190 -5 -2024 76 -2188 64 -131 165 -232 296 -296 162 -80 60 -76 1651 -76
1257 0 1427 2 1495 16 249 51 455 249 519 497 17 69 18 147 18 1633 l0 1561
-29 38 c-43 56 -1273 1343 -1295 1355 -13 7 -379 10 -1108 9 -1010 0 -1092 -1
-1143 -18z m2070 -643 c0 -468 4 -501 62 -611 62 -116 165 -205 294 -255 l69
-27 418 -3 417 -3 0 -1448 c0 -943 -4 -1467 -10 -1502 -30 -158 -148 -288
-303 -334 -44 -13 -230 -15 -1468 -15 -1384 0 -1418 0 -1481 20 -129 40 -238
149 -278 278 -20 63 -20 98 -20 2012 0 1923 0 1949 20 2013 39 127 148 236
276 277 56 18 107 19 1032 19 l972 1 0 -422z m725 -268 l356 -375 -302 -3
c-299 -2 -302 -2 -353 21 -69 32 -116 75 -146 134 -25 48 -25 49 -28 383 l-3
335 60 -60 c33 -33 220 -229 416 -435z"/>
<path d="M2513 3408 c-25 -14 -183 -177 -412 -422 -294 -317 -372 -406 -377
-433 -8 -44 13 -100 48 -126 31 -23 95 -27 130 -9 14 8 139 137 279 288 l254
274 5 -688 c4 -523 8 -692 17 -709 22 -38 68 -63 115 -63 47 1 72 15 100 57
17 26 18 67 18 716 0 378 3 687 8 686 4 0 122 -125 262 -276 171 -185 266
-281 290 -290 73 -31 160 29 160 110 -1 23 -6 51 -13 63 -26 46 -752 814 -783
829 -42 20 -54 19 -101 -7z"/>
<path d="M1494 1094 c-95 -47 -79 -194 24 -224 26 -8 351 -10 1072 -8 997 3
1036 4 1063 22 56 38 72 106 37 163 -40 67 30 63 -1122 63 -908 0 -1047 -2
-1074 -16z"/>
</g>
</svg>
