<?xml version="1.0" standalone="no"?>
<!DOCTYPE svg PUBLIC "-//W3C//DTD SVG 20010904//EN"
 "http://www.w3.org/TR/2001/REC-SVG-20010904/DTD/svg10.dtd">
<svg version="1.0" xmlns="http://www.w3.org/2000/svg"
 width="512.000000pt" height="512.000000pt" viewBox="0 0 512.000000 512.000000"
 preserveAspectRatio="xMidYMid meet">

<g transform="translate(0.000000,512.000000) scale(0.100000,-0.100000)"
fill="#000000" stroke="none">
<path d="M2370 5114 c-19 -2 -78 -9 -130 -15 -791 -90 -1522 -586 -1924 -1305
-146 -262 -252 -588 -297 -914 -18 -125 -18 -515 0 -640 105 -762 511 -1409
1146 -1826 609 -400 1377 -517 2090 -317 929 260 1646 1043 1819 1987 156 845
-103 1682 -705 2285 -399 398 -879 639 -1449 726 -100 15 -472 28 -550 19z
m400 -305 c541 -49 1054 -298 1429 -695 419 -443 644 -1040 618 -1644 -6 -134
-27 -308 -45 -371 -7 -26 -23 -13 -412 328 -332 290 -418 360 -475 387 -154
75 -318 75 -471 0 -30 -14 -201 -149 -400 -315 -192 -160 -369 -300 -393 -311
-33 -15 -59 -19 -110 -16 l-66 3 -240 155 c-132 84 -265 164 -295 176 -123 50
-244 54 -370 11 -40 -14 -265 -141 -594 -335 -318 -189 -532 -310 -537 -305
-5 5 -23 61 -39 125 -316 1254 480 2519 1745 2772 219 44 434 56 655 35z m998
-2272 c31 -20 820 -704 886 -767 19 -19 19 -21 -24 -117 -390 -888 -1310
-1431 -2275 -1343 -415 38 -824 197 -1159 450 -252 190 -485 462 -634 742
l-41 78 222 131 c122 72 242 144 267 159 251 154 614 361 648 370 82 21 122 4
386 -164 133 -85 259 -161 281 -170 145 -60 332 -47 470 33 28 16 206 159 397
318 191 160 362 295 380 301 55 18 153 8 196 -21z"/>
<path d="M1440 4044 c-190 -50 -353 -207 -412 -399 -28 -90 -30 -233 -4 -320
76 -255 299 -427 555 -429 169 -1 302 54 420 173 230 231 230 592 1 821 -72
72 -172 130 -266 155 -73 19 -221 19 -294 -1z m265 -308 c149 -69 208 -237
134 -384 -50 -102 -136 -155 -249 -155 -229 -1 -364 251 -237 440 33 48 88 92
142 111 56 19 155 14 210 -12z"/>
</g>
</svg>
