<svg id="beauty" xmlns="http://www.w3.org/2000/svg" width="60" height="68.889" viewBox="0 0 60 68.889">
  <path id="Path_2" data-name="Path 2" d="M99.111,260.46l-9.174-9.176a6.61,6.61,0,0,1,9.174-9.517,6.61,6.61,0,0,1,9.174,9.517Zm0,0" transform="translate(-75.778 -206.667)" fill="#ea2b6f"/>
  <path id="Path_3" data-name="Path 3" d="M36.667,302.895l-.129-.148A18.326,18.326,0,0,1,32,290.675v-.748a18.463,18.463,0,0,1,.346-3.56l2.181.428a16.236,16.236,0,0,0-.3,3.132v.748a16.112,16.112,0,0,0,3.987,10.61l.129.148Zm0,0" transform="translate(-27.556 -246.594)"/>
  <path id="Path_4" data-name="Path 4" d="M38.5,263.633l-2.15-.565a18.456,18.456,0,0,1,.831-2.443l2.049.861A16.216,16.216,0,0,0,38.5,263.633Zm0,0" transform="translate(-31.303 -224.427)"/>
  <path id="Path_5" data-name="Path 5" d="M48.074,238.662l-1.984-1a18.28,18.28,0,0,1,1.449-2.4l1.809,1.291A16.091,16.091,0,0,0,48.074,238.662Zm0,0" transform="translate(-39.688 -202.59)"/>
  <path id="Path_6" data-name="Path 6" d="M266.407,323.782l-1.774-1.338a16.213,16.213,0,0,0,3.245-9.7V312H270.1v.748A18.446,18.446,0,0,1,266.407,323.782Zm0,0" transform="translate(-227.878 -268.667)"/>
  <path id="Path_7" data-name="Path 7" d="M244.477,396.917l1.947-2.225,1.672,1.463-1.947,2.225Zm0,0" transform="translate(-210.521 -339.873)"/>
  <path id="Path_8" data-name="Path 8" d="M46.667,44.081v-.748a22.7,22.7,0,0,0-13.333-20.71V21.111a5.562,5.562,0,0,0-5.556-5.556H26.667V13.333h2.222V11.111H43.333V8.889H28.889V6.667H43.333V4.444H28.889V3.333A3.338,3.338,0,0,0,25.556,0H21.111a3.338,3.338,0,0,0-3.333,3.333v10H20v2.222H18.889a5.562,5.562,0,0,0-5.556,5.556v1.512A22.7,22.7,0,0,0,0,43.333v.748a22.766,22.766,0,0,0,5.635,15l.962,1.1a4.433,4.433,0,0,0,1.18,8.71H38.889a4.433,4.433,0,0,0,1.18-8.71l.962-1.1A22.766,22.766,0,0,0,46.667,44.081ZM20,3.333a1.113,1.113,0,0,1,1.111-1.111h4.444a1.113,1.113,0,0,1,1.111,1.111v7.778H20Zm2.222,10h2.222v2.222H22.222Zm-3.333,4.444h8.889a3.338,3.338,0,0,1,3.333,3.333v1.111H15.556V21.111A3.338,3.338,0,0,1,18.889,17.778ZM2.222,44.081v-.748A20.5,20.5,0,0,1,14.67,24.444H32A20.5,20.5,0,0,1,44.444,43.333v.748a20.552,20.552,0,0,1-5.086,13.537L37.274,60H9.392L7.308,57.617A20.549,20.549,0,0,1,2.222,44.081ZM41.111,64.444a2.224,2.224,0,0,1-2.222,2.222H7.778a2.222,2.222,0,0,1,0-4.444H38.889A2.224,2.224,0,0,1,41.111,64.444Zm0,0" transform="translate(0 0)"/>
  <path id="Path_9" data-name="Path 9" d="M314.521,15.556a7.276,7.276,0,0,1-3.6-.955L304,10.645V4.911L310.92.956a7.257,7.257,0,0,1,10.858,6.3V8.3A7.266,7.266,0,0,1,314.521,15.556Zm0,0" transform="translate(-261.778 0)" fill="#ea2b6f"/>
  <path id="Path_10" data-name="Path 10" d="M349.135,36.02l-1.1-1.929,3.01-1.721a2.813,2.813,0,0,1,4.208,2.442v.521h-2.222v-.521a.612.612,0,0,0-.882-.513Zm0,0" transform="translate(-299.694 -27.556)"/>
</svg>
