<svg id="card" xmlns="http://www.w3.org/2000/svg" width="75.896" height="75.896" viewBox="0 0 75.896 75.896">
  <path id="Path_24" data-name="Path 24" d="M177.011,45.258l-6.1,6.1h12.2Zm0,0" transform="translate(-145.103 -38.424)" fill="#ea2b6f"/>
  <path id="Path_25" data-name="Path 25" d="M82.466,123.313H58.206L45.258,136.424l37.154,37.242,25.074-25.207Zm-13.342,18.12-4.832,4.832L54.628,136.6l7.248-7.248,3.624,3.624,4.832-4.832L80,137.808l-7.248,7.248Zm16.912,18.12H76.372v-9.664a4.832,4.832,0,1,1,9.664,0,4.832,4.832,0,1,1,0,9.664Zm0,0" transform="translate(-38.424 -104.693)" fill="#fff"/>
  <path id="Path_26" data-name="Path 26" d="M255.291,264.246a6.04,6.04,0,0,0-11.978,1.107v10.872h10.872a6.04,6.04,0,0,0,1.107-11.978Zm-1.107,9.562h-8.456v-8.456a3.624,3.624,0,0,1,7.248,0v1.208h1.208a3.624,3.624,0,1,1,0,7.248Zm0,0" transform="translate(-206.573 -220.157)" fill="#ea2b6f"/>
  <path id="Path_27" data-name="Path 27" d="M31.908,0,0,31.908,43.988,75.9,75.9,43.988Zm14,17.412H17.912L20.328,15H43.488ZM41.072,12.58H22.744l9.164-9.164ZM3.416,31.908,15.5,19.828H48.319l24.16,24.16L43.988,72.479Zm0,0"/>
  <path id="Path_28" data-name="Path 28" d="M124.784,155.372,113.412,144l-4.832,4.832-3.624-3.624L96,154.164l11.372,11.372L112.2,160.7l3.624,3.624Zm-25.368-1.208,5.54-5.54,7.956,7.956-5.54,5.54Zm10.872-3.624,3.124-3.124,7.956,7.956-5.54,5.54L113.912,159l2.416-2.416Zm0,0" transform="translate(-81.504 -122.256)"/>
  <path id="Path_29" data-name="Path 29" d="M245.652,143.364l1.708-1.708,22.952,22.952-1.709,1.708Zm0,0" transform="translate(-208.559 -120.266)"/>
</svg>
