<svg xmlns="http://www.w3.org/2000/svg" width="114.792" height="114.791" viewBox="0 0 114.792 114.791">
  <g id="email" transform="translate(39.852 -0.009) rotate(28)">
    <g id="Group_197" data-name="Group 197" transform="translate(0 0.01)">
      <g id="Group_196" data-name="Group 196">
        <path id="Path_243" data-name="Path 243" d="M82.752,28.313,56.574,2.135a7.275,7.275,0,0,0-10.277,0L5.444,42.988a7.275,7.275,0,0,0,0,10.277l6.568,6.568L4.8,67.045A1.658,1.658,0,0,0,7.145,69.39l7.212-7.212,3,3L.486,82.057A1.658,1.658,0,0,0,2.83,84.4L19.705,67.526,31.622,79.443a7.276,7.276,0,0,0,10.277,0L82.752,38.59a7.267,7.267,0,0,0,0-10.277Zm-47.2,49.751a3.922,3.922,0,0,1-1.59-.966L7.789,50.921A3.951,3.951,0,0,1,6.771,47.1H35.556ZM29.563,43.786l4.916-4.916a1.658,1.658,0,0,0-2.344-2.344l-7.261,7.26h-4.83L35.032,28.8a1.658,1.658,0,0,0-2.345-2.345L15.355,43.786H9.335L47.1,6.026V39.835a3.956,3.956,0,0,1-3.951,3.951Zm50.844-7.541L39.554,77.1a3.944,3.944,0,0,1-.683.543V47.1h4.272a7.275,7.275,0,0,0,7.267-7.267V35.562h19L59.82,45.156A1.658,1.658,0,0,0,62.165,47.5L74.1,35.564h6.852A3.974,3.974,0,0,1,80.408,36.245Zm-30-4V3.462A3.951,3.951,0,0,1,54.23,4.479L80.407,30.657a3.929,3.929,0,0,1,.97,1.59Z" transform="translate(0 -0.01)" fill="#d4dbea"/>
      </g>
    </g>
    <g id="Group_199" data-name="Group 199" transform="translate(36.26 21.911)">
      <g id="Group_198" data-name="Group 198">
        <path id="Path_244" data-name="Path 244" d="M221.55,132.606a1.657,1.657,0,1,0,.486,1.172A1.663,1.663,0,0,0,221.55,132.606Z" transform="translate(-218.72 -132.12)" fill="#d4dbea"/>
      </g>
    </g>
    <g id="Group_201" data-name="Group 201" transform="translate(0.007 70.867)">
      <g id="Group_200" data-name="Group 200">
        <path id="Path_245" data-name="Path 245" d="M2.87,427.906a1.657,1.657,0,0,0-2.344,0A1.658,1.658,0,1,0,2.87,430.25a1.657,1.657,0,0,0,0-2.344Z" transform="translate(-0.04 -427.42)" fill="#d4dbea"/>
      </g>
    </g>
    <g id="Group_203" data-name="Group 203" transform="translate(10.698 74.041)">
      <g id="Group_202" data-name="Group 202">
        <path id="Path_246" data-name="Path 246" d="M74.889,447.054a1.658,1.658,0,0,0-2.345,0l-7.529,7.529a1.658,1.658,0,0,0,2.345,2.345l7.529-7.529A1.658,1.658,0,0,0,74.889,447.054Z" transform="translate(-64.53 -446.568)" fill="#d4dbea"/>
      </g>
    </g>
  </g>
</svg>
