<svg id="fashion" xmlns="http://www.w3.org/2000/svg" width="68.333" height="68.333" viewBox="0 0 68.333 68.333">
  <path id="Path_22" data-name="Path 22" d="M116.618,28.656a28.648,28.648,0,0,0-6.688-18.38,4.4,4.4,0,0,0-3.586-3.587A28.621,28.621,0,0,0,59.852,23.2a4.373,4.373,0,0,0-2.329,7.659,4.351,4.351,0,0,0,0,6.613,4.37,4.37,0,0,0,1.438,7.452,4.379,4.379,0,0,0,1.548,6.318l-3.2,3.2L58.866,56l4.849-4.849L65.463,52.9l-4.849,4.849,1.558,1.558,3.2-3.2a4.377,4.377,0,0,0,6.317,1.549,4.37,4.37,0,0,0,7.452,1.438,4.351,4.351,0,0,0,6.613,0,4.373,4.373,0,0,0,7.659-2.329A28.493,28.493,0,0,0,116.618,28.656ZM107.8,11.021a2.2,2.2,0,1,1-2.2-2.2A2.206,2.206,0,0,1,107.8,11.021ZM58.2,27.554a2.2,2.2,0,1,1,2.2,2.2A2.206,2.206,0,0,1,58.2,27.554Zm0,6.613a2.2,2.2,0,1,1,2.2,2.2A2.206,2.206,0,0,1,58.2,34.166Zm0,6.613a2.2,2.2,0,1,1,2.2,2.2A2.206,2.206,0,0,1,58.2,40.779ZM62.2,49.554a2.2,2.2,0,1,1,2.619-2.162,2.181,2.181,0,0,1-.445,1.3l-.657-.657Zm7.027,6.655a2.206,2.206,0,0,1-2.162-1.79L68.58,52.9l-.657-.657a2.181,2.181,0,0,1,1.3-.445,2.2,2.2,0,0,1,0,4.409Zm6.613,2.2a2.2,2.2,0,1,1,2.2-2.2A2.206,2.206,0,0,1,75.839,58.413Zm6.613,0a2.2,2.2,0,1,1,2.2-2.2A2.206,2.206,0,0,1,82.451,58.413Zm6.613,0a2.2,2.2,0,1,1,2.2-2.2A2.206,2.206,0,0,1,89.064,58.413Zm4.086-3.841a4.378,4.378,0,0,0-7.392-1.249,4.351,4.351,0,0,0-6.613,0,4.37,4.37,0,0,0-5.774-.766,4.383,4.383,0,0,0-7.022-1.886l-.4-.4a4.383,4.383,0,0,0-1.886-7.022,4.37,4.37,0,0,0-.766-5.774,4.351,4.351,0,0,0,0-6.613,4.378,4.378,0,0,0-1.249-7.392A26.426,26.426,0,0,1,103.431,7.2a4.394,4.394,0,0,0-2.113,2.8c-2.678.4-4.14,2.419-5.435,4.234s-2.427,3.4-4.615,3.4v2.2c3.323,0,4.962-2.295,6.407-4.319,1.106-1.549,2.091-2.908,3.7-3.284a4.4,4.4,0,0,0,3,3c-.376,1.612-1.734,2.6-3.284,3.7-2.023,1.446-4.318,3.085-4.318,6.408h2.2c0-2.188,1.574-3.312,3.4-4.615s3.832-2.756,4.234-5.435a4.4,4.4,0,0,0,2.8-2.113A26.426,26.426,0,0,1,93.15,54.573Zm0,0" transform="translate(-48.285)"/>
  <path id="Path_23" data-name="Path 23" d="M12.124,385.634H0V373.511a5.511,5.511,0,0,1,11.021,0v1.1h1.1a5.511,5.511,0,0,1,0,11.021Zm0,0" transform="translate(0 -317.302)" fill="#ea2b6f"/>
</svg>
