<svg id="groom" xmlns="http://www.w3.org/2000/svg" width="40.682" height="71.223" viewBox="0 0 40.682 71.223">
  <g id="Group_205" data-name="Group 205" transform="translate(0)">
    <path id="Path_247" data-name="Path 247" d="M37.739,11.99l2.94-.98-.593-1.184A17.677,17.677,0,0,0,24.188,0h-.5a17.741,17.741,0,0,0-6.241,1.132L11.219,3.469,10.056,3.6A11.3,11.3,0,0,0,1.194,19.89l1.122,2.246a2.264,2.264,0,0,1,1.13-.309h2.3V19.183a3.444,3.444,0,0,1,1.674-2.955l2.748-1.648a8.983,8.983,0,0,0,4.743,2.774l4.62,1.026-.561-3.362a47.508,47.508,0,0,1,14.346,4.511v2.3h2.3a2.271,2.271,0,0,1,1.11.3l.366-1.462a10.555,10.555,0,0,1,2.782-4.916l.812-.812Z" transform="translate(0 0)" fill="#ea2b6f"/>
  </g>
  <g id="Group_206" data-name="Group 206" transform="translate(0 8.123)">
    <path id="Path_248" data-name="Path 248" d="M14.893,21.446a3.446,3.446,0,1,0-3.446,3.446A3.45,3.45,0,0,0,14.893,21.446ZM11.446,22.6A1.149,1.149,0,1,1,12.6,21.446,1.15,1.15,0,0,1,11.446,22.6Z" transform="translate(1.19 -5.445)"/>
    <path id="Path_249" data-name="Path 249" d="M23.446,18a3.446,3.446,0,1,0,3.446,3.446A3.45,3.45,0,0,0,23.446,18Zm0,4.6A1.149,1.149,0,1,1,24.6,21.446,1.15,1.15,0,0,1,23.446,22.6Z" transform="translate(2.975 -5.445)"/>
    <path id="Path_250" data-name="Path 250" d="M12.39,28.679a5.561,5.561,0,0,0,10.791,0L23.852,26H11.719ZM20.9,28.3a3.266,3.266,0,0,1-6.238,0Z" transform="translate(1.743 -4.255)"/>
    <path id="Path_251" data-name="Path 251" d="M35.611,19.626h-.774l-1.015-3.558a13.675,13.675,0,0,0-8.122-9L24.848,9.2a11.382,11.382,0,0,1,6.665,7.16A48.555,48.555,0,0,0,19.97,12.979l-.456-2.734-2.266.378.868,5.213-2.958-.657a7.846,7.846,0,0,1-5.99-6.118l-2.253.451A10.091,10.091,0,0,0,8.48,13.2l-1.654.993A4.618,4.618,0,0,0,4.6,18.131v1.495H3.446a3.446,3.446,0,1,0,0,6.893H4.654A14.945,14.945,0,0,0,14.217,39.31c-.043.068-.078.139-.114.21A12.825,12.825,0,0,0,4.6,51.854v2.234H7.009a5.762,5.762,0,0,0,4.479,4.479v9.306a2.3,2.3,0,0,0,2.3,2.3h4.6a2.272,2.272,0,0,0,1.149-.319,2.272,2.272,0,0,0,1.149.319h4.6a2.3,2.3,0,0,0,2.3-2.3V58.567a5.762,5.762,0,0,0,4.479-4.479h2.414V51.854a12.812,12.812,0,0,0-9.507-12.335c-.037-.071-.071-.142-.114-.209a14.949,14.949,0,0,0,9.563-12.791h1.206a3.446,3.446,0,1,0,0-6.893ZM2.3,23.072a1.15,1.15,0,0,1,1.149-1.149H4.6v2.3H3.446A1.15,1.15,0,0,1,2.3,23.072ZM23.979,45.611l-3.955,3.165,1.964-3.928a2.814,2.814,0,0,0,.511.051,2.74,2.74,0,0,0,1.227-.3Zm1.293,17.347v.959a4.452,4.452,0,0,0-4.6,0V62.605a2.754,2.754,0,0,1,.812-1.961l-1.624-1.625a5.037,5.037,0,0,0-1.485,3.586v1.312a4.452,4.452,0,0,0-4.6,0v-.959l2.661-.887-.727-2.179-1.933.643V58.683H25.273v1.852l-1.934-.644-.727,2.179ZM19.012,43.593l.517-.517.517.517-.517,1.034Zm-2.929-1.468V40.779a.476.476,0,0,1,.812-.337l1.01,1.01-1.011,1.01a.494.494,0,0,1-.811-.337Zm6.08.337-1.01-1.01,1.011-1.01a.494.494,0,0,1,.811.337v1.346a.494.494,0,0,1-.812.337ZM15.331,44.6a2.635,2.635,0,0,0,1.738.247l1.964,3.928-3.955-3.165Zm-1.74-2.509-1.1,4.393,5.887,4.711v5.191h-4.6V50.642A5.037,5.037,0,0,0,12.3,47.056l-1.624,1.625a2.754,2.754,0,0,1,.812,1.961v1.149h-4.6a10.528,10.528,0,0,1,6.7-9.7Zm-4.19,12h2.086v2.086A3.443,3.443,0,0,1,9.4,54.088Zm4.384,13.785a2.3,2.3,0,0,1,4.6-.006v.006Zm6.893,0a2.3,2.3,0,0,1,4.6-.011v.011Zm6.893-11.7V54.088h2.086A3.443,3.443,0,0,1,27.57,56.174Zm4.6-4.384h-4.6V50.642a2.754,2.754,0,0,1,.812-1.961l-1.624-1.625a5.037,5.037,0,0,0-1.485,3.586v5.744h-4.6V51.195l5.889-4.711-1.1-4.4a10.521,10.521,0,0,1,6.7,9.7ZM19.529,38.006A12.651,12.651,0,0,1,6.893,25.369V18.131A2.311,2.311,0,0,1,8.008,16.16l2-1.2a10.107,10.107,0,0,0,4.655,2.459l6.284,1.4-.576-3.455a46.221,46.221,0,0,1,11.8,3.839v6.167A12.653,12.653,0,0,1,19.529,38.006ZM35.611,24.221H34.463v-2.3h1.149a1.149,1.149,0,0,1,0,2.3Z" transform="translate(0 -7.071)"/>
  </g>
</svg>
