<svg xmlns="http://www.w3.org/2000/svg" width="41" height="41" viewBox="0 0 41 41">
  <g id="Group_221" data-name="Group 221" transform="translate(-671 -4979)">
    <circle id="Ellipse_19" data-name="Ellipse 19" cx="20.5" cy="20.5" r="20.5" transform="translate(671 4979)" fill="#fef2f6"/>
    <g id="Icon" transform="translate(682.5 4989.5)">
      <path id="Combined_Shape" data-name="Combined Shape" d="M5,13a1,1,0,0,1-.658-.247A15.363,15.363,0,0,1,1.1,8.978,7.617,7.617,0,0,1,0,5.167,5.247,5.247,0,0,1,1.432,1.545a4.893,4.893,0,0,1,7.136,0A5.248,5.248,0,0,1,10,5.167,7.617,7.617,0,0,1,8.9,8.978a15.363,15.363,0,0,1-3.245,3.775A1,1,0,0,1,5,13ZM5,4A1,1,0,1,0,6,5,1,1,0,0,0,5,4Z" transform="translate(4 0)" fill="#ea2b6f"/>
      <path id="Path_" data-name="Path " d="M14.132.5A1,1,0,0,1,15.392.08l.1.052,2,1.143a1,1,0,0,1,.5.75L18,2.143V8a1,1,0,0,1-1.131.991l-.111-.021-3.641-.91L9.447,9.895a1,1,0,0,1-.771.052l-.123-.052L4.883,8.06l-3.64.91A1,1,0,0,1,.006,8.113L0,8V2.143a1,1,0,0,1,.4-.8l.1-.065L2.5.132A1,1,0,0,1,3.594,1.8l-.1.064L2,2.723V6.718L4.757,6.03a1,1,0,0,1,.558.021l.131.054L9,7.881l3.553-1.775a1,1,0,0,1,.55-.1l.14.025L16,6.719V2.724l-1.5-.856A1,1,0,0,1,14.08.609Z" transform="translate(0 10)" fill="#ea2b6f" opacity="0.5"/>
    </g>
  </g>
</svg>
