<svg id="Group_12" data-name="Group 12" xmlns="http://www.w3.org/2000/svg" width="136.759" height="149" viewBox="0 0 136.759 149">
  <path id="Path_11" data-name="Path 11" d="M133.987,267.98h0a9.771,9.771,0,0,1-9.77-9.77h0a9.771,9.771,0,0,1,9.77-9.77h0a9.771,9.771,0,0,1,9.77,9.77h0A9.771,9.771,0,0,1,133.987,267.98Z" transform="translate(-65.61 -118.98)" fill="#ea2b6f"/>
  <path id="Path_12" data-name="Path 12" d="M72.655,92.495v2.443H92.2a9.771,9.771,0,0,1,9.77-9.77h14.656a9.771,9.771,0,0,1,9.77,9.77v7.328a9.771,9.771,0,0,1-9.77,9.77h-7.328a9.771,9.771,0,0,0-9.77,9.77v19.541a9.771,9.771,0,0,0,9.77,9.77h0a9.771,9.771,0,0,0,9.77-9.77v-9.77h0a26.869,26.869,0,0,0,26.869-26.869V92.495a26.869,26.869,0,0,0-26.869-26.869H99.523A26.87,26.87,0,0,0,72.655,92.495Z" transform="translate(-40.916 -31.429)" fill="#ea2b6f"/>
  <path id="Path_13" data-name="Path 13" d="M166.443,254.857l-.9-4.8c1.531-.286,3.075-.635,4.585-1.035l1.261,4.722C169.761,254.168,168.095,254.547,166.443,254.857Z" transform="translate(-85.403 -119.257)" fill="#333"/>
  <path id="Path_14" data-name="Path 14" d="M107.266,131.169l-1.937-4.485a63.694,63.694,0,0,0,8.3-4.345l2.582,4.145A67.991,67.991,0,0,1,107.266,131.169Zm-54.477-.083a68.332,68.332,0,0,1-8.928-4.714l2.6-4.14a63.02,63.02,0,0,0,8.285,4.375Zm71.575-10.547-3.163-3.725a63.634,63.634,0,0,0,6.683-6.573l3.674,3.219A69.323,69.323,0,0,1,124.364,120.539ZM35.727,120.4a69.34,69.34,0,0,1-7.176-7.1l3.684-3.209a63.949,63.949,0,0,0,6.666,6.593Zm101.911-15-4.1-2.648a63.652,63.652,0,0,0,4.484-8.229l4.451,2.013A68.007,68.007,0,0,1,137.638,105.407ZM22.5,105.233a68.594,68.594,0,0,1-4.8-8.881l4.455-2a63.61,63.61,0,0,0,4.46,8.242ZM145.935,87.07l-4.7-1.331a63.644,63.644,0,0,0,1.876-9.177l4.846.621A68.159,68.159,0,0,1,145.935,87.07ZM14.255,86.86a68.2,68.2,0,0,1-1.988-9.892l4.846-.606a63.621,63.621,0,0,0,1.847,9.187ZM143.62,67.2a64.338,64.338,0,0,0-.86-9.333l4.819-.8a68.991,68.991,0,0,1,.926,10.044ZM16.631,67l-4.885-.105A69.24,69.24,0,0,1,12.7,56.85l4.819.821A63.176,63.176,0,0,0,16.631,67ZM140.542,48.765A63.734,63.734,0,0,0,137,40.091l4.37-2.181a67.746,67.746,0,0,1,3.823,9.345ZM19.77,48.579l-4.641-1.527a68.454,68.454,0,0,1,3.85-9.326l4.365,2.189A63.745,63.745,0,0,0,19.77,48.579ZM132.2,32.033a64.68,64.68,0,0,0-5.923-7.269l3.549-3.354a69.6,69.6,0,0,1,6.375,7.821ZM28.158,31.882l-4-2.809a68.98,68.98,0,0,1,6.4-7.8L34.1,24.639A63.268,63.268,0,0,0,28.158,31.882Zm91.2-13.432a64.607,64.607,0,0,0-7.773-5.242l2.428-4.235a69.234,69.234,0,0,1,8.364,5.638Zm-78.327-.113-3-3.85a68.814,68.814,0,0,1,8.388-5.616l2.408,4.25A63.775,63.775,0,0,0,41.033,18.337Zm62.106-9.155a63.249,63.249,0,0,0-8.96-2.736l1.077-4.765a68.542,68.542,0,0,1,9.651,2.95ZM57.3,9.109,55.539,4.554a67.786,67.786,0,0,1,9.668-2.921L66.272,6.4A63.635,63.635,0,0,0,57.3,9.109ZM84.916,5.062a65.23,65.23,0,0,0-9.375-.015L75.192.176A69.169,69.169,0,0,1,85.278.191Z" transform="translate(-11.746 0)" fill="#ededed"/>
  <path id="Path_15" data-name="Path 15" d="M114.121,254.856c-1.653-.31-3.317-.686-4.946-1.119l1.26-4.722c1.51.4,3.053.75,4.585,1.035Z" transform="translate(-58.406 -119.256)" fill="#333"/>
</svg>
