<svg id="Group_208" data-name="Group 208" xmlns="http://www.w3.org/2000/svg" width="58.472" height="68.583" viewBox="0 0 58.472 68.583">
  <circle id="Ellipse_17" data-name="Ellipse 17" cx="1.106" cy="1.106" r="1.106" transform="translate(23.706 26.548)"/>
  <circle id="Ellipse_18" data-name="Ellipse 18" cx="1.106" cy="1.106" r="1.106" transform="translate(32.555 26.548)"/>
  <path id="Path_253" data-name="Path 253" d="M23.063,31.653a3.939,3.939,0,0,0,7.644,0L31.619,28H22.148Zm5.723-1.44-.227.9a1.727,1.727,0,0,1-3.351,0l-.227-.9Z" transform="translate(2.352 2.973)"/>
  <path id="Path_254" data-name="Path 254" d="M25.43,48h2.212v2.212H25.43Z" transform="translate(2.7 5.097)"/>
  <path id="Path_255" data-name="Path 255" d="M19.43,18h2.212v4.425H19.43Z" transform="translate(2.063 1.911)"/>
  <path id="Path_256" data-name="Path 256" d="M23.43,18h2.212v4.425H23.43Z" transform="translate(2.488 1.911)"/>
  <path id="Path_257" data-name="Path 257" d="M27.43,18h2.212v4.425H27.43Z" transform="translate(2.913 1.911)"/>
  <path id="Path_258" data-name="Path 258" d="M31.43,18h2.212v4.425H31.43Z" transform="translate(3.337 1.911)"/>
  <path id="Path_259" data-name="Path 259" d="M51.6,34.649A109.878,109.878,0,0,1,48,17.7l-.18-1.383a18.744,18.744,0,0,0-37.173,0l-.18,1.383A109.878,109.878,0,0,1,6.876,34.649L0,57.86l4.677-.936a2.147,2.147,0,0,1,2.414,1.308,4.361,4.361,0,0,0,5.665,2.427l.923-.368a2.134,2.134,0,0,1,1.871.148,31.3,31.3,0,0,0-1.1,3.758l-.976,4.387H45L44.021,64.2a31.507,31.507,0,0,0-1.1-3.758,2.138,2.138,0,0,1,1.871-.148l.923.369a4.357,4.357,0,0,0,5.665-2.428,2.146,2.146,0,0,1,2.413-1.308l4.677.936ZM19.281,46.466A6.754,6.754,0,0,1,22.544,40.7l.567-.341a12.11,12.11,0,0,0,1.972.926l.423,2.112a3.8,3.8,0,0,0,7.461,0l.423-2.112a12.116,12.116,0,0,0,1.972-.926l.567.341a6.757,6.757,0,0,1,3.263,5.763,6.638,6.638,0,0,1-.213,1.592l-2.046-.819a4.207,4.207,0,0,0,.046-.627,1.926,1.926,0,0,1,.566-1.368l.216-.216L36.2,43.465l-.216.216a4.119,4.119,0,0,0-1.215,2.932,1.925,1.925,0,0,1-1.217,1.8l-2.331.933a3.269,3.269,0,0,0-3.967,0l-2.331-.931a1.928,1.928,0,0,1-1.217-1.8,4.121,4.121,0,0,0-1.215-2.932l-.216-.216-1.564,1.564.216.216a1.926,1.926,0,0,1,.566,1.368,4.2,4.2,0,0,0,.046.627l-2.046.819a6.711,6.711,0,0,1-.212-1.593Zm9.956-35.4A12.182,12.182,0,0,1,41.4,23.23v2.212a12.168,12.168,0,0,0-24.336,0V23.23A12.182,12.182,0,0,1,29.236,11.062Zm-6.2-.789.243-1.7a2.25,2.25,0,0,1,4.41-.228l.145.58a14.245,14.245,0,0,0-4.8,1.353Zm7.6-1.353.145-.58a2.25,2.25,0,0,1,4.41.229l.243,1.7A14.214,14.214,0,0,0,30.635,8.92ZM19.281,25.442a9.956,9.956,0,1,1,19.911,0v4.425a9.956,9.956,0,1,1-19.911,0ZM31.013,41.89,30.8,42.968a1.592,1.592,0,0,1-3.123,0l-.216-1.077a10.969,10.969,0,0,0,3.554,0ZM26.3,53.591l1.834-.917v-.684a1.106,1.106,0,0,1,2.212,0v.684l1.835.917a.684.684,0,0,1,0,1.223l-1.834.917v.684a1.106,1.106,0,0,1-2.212,0v-.684l-1.835-.917a.684.684,0,0,1,0-1.223Zm-2.59,12.78H18.713l.108-.069a27.951,27.951,0,0,0,4.884-3.887Zm2.212-6.431q.481-.607.926-1.24a3.321,3.321,0,0,0,1.286.842v6.83H25.918Zm4.425-.4a3.326,3.326,0,0,0,1.286-.842q.446.632.926,1.24v6.43H30.343Zm4.425,2.873A27.951,27.951,0,0,0,39.651,66.3l.108.069H34.767Zm7.094,2.26.1.465-1.142-.713a25.859,25.859,0,0,1-7.78-7.572l.122-.061A2.864,2.864,0,0,0,34.6,55.139a8.9,8.9,0,0,0,2.554-1.064,29.624,29.624,0,0,1,4.711,10.6ZM34.421,52.87a2.855,2.855,0,0,0-1.256-1.257l-.691-.345c0-.013-.009-.025-.012-.04l1.91-.764a4.135,4.135,0,0,0,1.646-1.206l2.091.836a6.753,6.753,0,0,1-3.688,2.775ZM22.453,49.258A4.146,4.146,0,0,0,24.1,50.464l1.91.764c0,.013-.009.025-.012.04l-.69.345a2.857,2.857,0,0,0-1.258,1.263,6.663,6.663,0,0,1-3.69-2.78Zm-1.124,4.8a9.165,9.165,0,0,0,2.544,1.072,2.864,2.864,0,0,0,1.433,1.659l.123.061a25.846,25.846,0,0,1-7.78,7.572l-1.14.713.1-.463a29.625,29.625,0,0,1,4.718-10.614Zm30.494.906L48,40.643l-2.138.571L49.917,56.4a4.354,4.354,0,0,0-.588,1.007,2.134,2.134,0,0,1-1.688,1.316l-1.833-9.165L43.638,50l1.625,8.124a4.36,4.36,0,0,0-3.166.244,31.8,31.8,0,0,0-3.216-5.671,8.921,8.921,0,0,0-1.591-13.73,12.132,12.132,0,0,0,4.113-9.1V27.991l1.881,2.82a1.981,1.981,0,0,1-.248,2.5l-.527.527a3.776,3.776,0,0,0,0,5.341l1.43,1.43L45.5,39.042,44.075,37.61a1.565,1.565,0,0,1,0-2.212l.527-.527a4.192,4.192,0,0,0,.524-5.289l-1.509-2.262V23.23a14.351,14.351,0,0,0-5.736-11.465l-.5-3.509a4.463,4.463,0,0,0-8.144-1.825,4.463,4.463,0,0,0-8.144,1.824l-.5,3.51A14.351,14.351,0,0,0,14.856,23.23v4.09l-1.509,2.262a4.192,4.192,0,0,0,.524,5.289l.527.528a1.565,1.565,0,0,1,0,2.212l-1.43,1.43L14.532,40.6l1.43-1.43a3.776,3.776,0,0,0,0-5.341l-.527-.527a1.981,1.981,0,0,1-.248-2.5l1.881-2.82v1.877a12.126,12.126,0,0,0,4.113,9.1,8.973,8.973,0,0,0-4.113,7.5A8.861,8.861,0,0,0,19.6,52.684a31.786,31.786,0,0,0-3.221,5.679,4.344,4.344,0,0,0-3.166-.244L14.835,50l-2.169-.435-1.834,9.167A2.14,2.14,0,0,1,9.145,57.41,4.322,4.322,0,0,0,8.556,56.4l4.051-15.188-2.138-.571L6.648,54.966a4.31,4.31,0,0,0-2.406-.211l-1.08.216L9,35.277a112.126,112.126,0,0,0,3.665-17.29l.18-1.383a16.532,16.532,0,0,1,32.786,0l.18,1.383a112.153,112.153,0,0,0,3.665,17.29l5.835,19.692-1.08-.216a4.351,4.351,0,0,0-2.406.213Z" transform="translate(0)"/>
</svg>
