<svg xmlns="http://www.w3.org/2000/svg" width="66" height="66" viewBox="0 0 66 66">
  <g id="Group_220" data-name="Group 220" transform="translate(-1210 -3847)">
    <circle id="Ellipse_13" data-name="Ellipse 13" cx="33" cy="33" r="33" transform="translate(1210 3847)" fill="#fef2f6"/>
    <g id="Icon_File_Two-Tone_Rules" data-name="Icon/File/Two-Tone/Rules" transform="translate(1228 3865)">
      <g id="Icon" transform="translate(3.875 3.875)">
        <path id="Combined_Shape" data-name="Combined Shape" d="M16.947,23.245v0a1.295,1.295,0,0,0,.017-2.568l-.172-.009A1.293,1.293,0,0,1,15.5,19.374V16.791A1.294,1.294,0,0,0,14.208,15.5H0V3.875A3.876,3.876,0,0,1,3.647.007L3.875,0H16.791A3.877,3.877,0,0,1,20.66,3.647l.007.228v15.5a3.876,3.876,0,0,1-3.648,3.868ZM6.459,10.333l-.151.008a1.292,1.292,0,0,0,.151,2.575h7.749l.151-.008a1.292,1.292,0,0,0-.151-2.575Zm0-3.875-.151.008a1.292,1.292,0,0,0,.151,2.575h6.458l.151-.009a1.291,1.291,0,0,0-.151-2.574Z" transform="translate(2.583 0)" fill="#ea2b6f"/>
        <path id="Combined_Shape-2" data-name="Combined Shape" d="M3.875,7.75A3.875,3.875,0,0,1,0,3.875V1.292A1.291,1.291,0,0,1,1.292,0h15.5a1.292,1.292,0,0,1,1.293,1.292V3.875a1.291,1.291,0,0,0,1.292,1.292l.172.009a1.293,1.293,0,0,1-.172,2.575Z" transform="translate(0 15.5)" fill="#ea2b6f" opacity="0.5"/>
      </g>
    </g>
  </g>
</svg>
