<svg id="Icon" xmlns="http://www.w3.org/2000/svg" width="27" height="28.688" viewBox="0 0 27 28.688">
  <path id="Path" d="M13.5,0A13.659,13.659,0,0,1,26.994,13.415l.006.422v8.1a1.688,1.688,0,0,1-3.364.2l-.011-.2v-8.1A10.3,10.3,0,0,0,13.5,3.375,10.284,10.284,0,0,0,3.382,13.453l-.007.384v8.1a1.688,1.688,0,0,1-3.364.2L0,21.938v-8.1A13.672,13.672,0,0,1,13.5,0Z" fill="#ea2b6f" opacity="0.5"/>
  <path id="Combined_Shape" data-name="Combined Shape" d="M16.875,8.438V5.062A5.062,5.062,0,0,1,21.937,0h3.376A1.688,1.688,0,0,1,27,1.687V8.438a5.063,5.063,0,0,1-10.126,0ZM0,8.438V1.687A1.687,1.687,0,0,1,1.687,0H5.062a5.063,5.063,0,0,1,5.064,5.062V8.438A5.063,5.063,0,0,1,0,8.438Z" transform="translate(0 15.188)" fill="#ea2b6f"/>
</svg>
