<?xml version="1.0" standalone="no"?>
<!DOCTYPE svg PUBLIC "-//W3C//DTD SVG 20010904//EN"
 "http://www.w3.org/TR/2001/REC-SVG-20010904/DTD/svg10.dtd">
<svg version="1.0" xmlns="http://www.w3.org/2000/svg"
 width="403.000000pt" height="354.000000pt" viewBox="0 0 403.000000 354.000000"
 preserveAspectRatio="xMidYMid meet">

<g transform="translate(0.000000,354.000000) scale(0.100000,-0.100000)"
fill="#000000" stroke="none">
<path d="M1934 3494 c-24 -9 -122 -81 -240 -177 -109 -90 -529 -432 -932 -761
-508 -415 -734 -605 -738 -622 -4 -17 1 -36 20 -62 44 -64 94 -112 115 -112
12 0 89 55 172 123 83 67 159 128 170 136 19 13 19 -3 19 -950 0 -926 1 -965
19 -995 39 -65 34 -64 605 -64 570 0 568 0 606 62 19 32 20 49 20 551 l0 517
250 0 250 0 0 -517 c0 -496 1 -519 20 -550 39 -64 25 -63 600 -63 567 0 570 0
607 56 17 27 18 80 23 998 l5 970 90 -75 c175 -146 247 -199 267 -199 21 0 69
47 114 112 49 69 193 -58 -1480 1306 -264 215 -383 306 -415 317 -55 18 -113
18 -167 -1z m378 -471 c160 -131 440 -360 622 -509 l331 -270 3 -992 2 -992
-375 0 -375 0 0 511 c0 559 0 556 -58 596 -25 16 -61 18 -429 21 -446 3 -455
2 -493 -60 -19 -32 -20 -49 -20 -550 l0 -518 -375 0 -375 0 2 992 3 992 620
507 c341 279 621 508 623 508 1 1 134 -106 294 -236z"/>
</g>
</svg>
