<svg id="icon" xmlns="http://www.w3.org/2000/svg" width="24" height="24" viewBox="0 0 24 24">
  <path id="Icon_social" d="M10,20c-2.691,0-3.048-.012-4.123-.06a7.381,7.381,0,0,1-2.428-.464,4.88,4.88,0,0,1-1.77-1.155A4.9,4.9,0,0,1,.524,16.549a7.4,7.4,0,0,1-.464-2.427C.011,13.048,0,12.692,0,10c0-2.669.012-3.029.06-4.124A7.321,7.321,0,0,1,.524,3.449,4.919,4.919,0,0,1,1.678,1.677,4.917,4.917,0,0,1,3.45.524,7.368,7.368,0,0,1,5.877.059C6.883.014,7.271,0,9.468,0L10,0c2.69,0,3.046.012,4.121.06a7.412,7.412,0,0,1,2.43.464,4.9,4.9,0,0,1,1.77,1.153,4.917,4.917,0,0,1,1.155,1.772,7.48,7.48,0,0,1,.464,2.427c.049,1.1.06,1.455.06,4.124s-.012,3.027-.06,4.122a7.472,7.472,0,0,1-.464,2.427,5.129,5.129,0,0,1-2.925,2.926,7.38,7.38,0,0,1-2.428.464C13.048,19.988,12.692,20,10,20ZM9.1,1.8c-1.884,0-2.231.014-3.145.057A5.487,5.487,0,0,0,4.1,2.2a3.082,3.082,0,0,0-1.15.748A3.09,3.09,0,0,0,2.2,4.1a5.509,5.509,0,0,0-.345,1.857C1.812,7,1.8,7.316,1.8,10s.01,2.994.058,4.041A5.508,5.508,0,0,0,2.2,15.893a3.085,3.085,0,0,0,.748,1.149,3.1,3.1,0,0,0,1.15.748,5.556,5.556,0,0,0,1.857.345c1.061.048,1.379.059,4.041.059s2.982-.01,4.041-.059A5.541,5.541,0,0,0,15.9,17.79a3.321,3.321,0,0,0,1.9-1.9,5.555,5.555,0,0,0,.345-1.857c.048-1.06.059-1.378.059-4.039s-.01-2.981-.059-4.04A5.54,5.54,0,0,0,17.8,4.1a3.089,3.089,0,0,0-.749-1.15A3.075,3.075,0,0,0,15.9,2.2a5.489,5.489,0,0,0-1.858-.344C13.014,1.812,12.7,1.8,10,1.8H9.358C9.278,1.8,9.188,1.8,9.1,1.8ZM10,15.134A5.135,5.135,0,1,1,15.135,10,5.141,5.141,0,0,1,10,15.134Zm0-8.468A3.334,3.334,0,1,0,13.334,10,3.337,3.337,0,0,0,10,6.666Zm5.338-.8a1.2,1.2,0,1,1,1.2-1.2A1.2,1.2,0,0,1,15.339,5.862Z" transform="translate(2 2)"/>
</svg>
