<?xml version="1.0" standalone="no"?>
<!DOCTYPE svg PUBLIC "-//W3C//DTD SVG 20010904//EN"
 "http://www.w3.org/TR/2001/REC-SVG-20010904/DTD/svg10.dtd">
<svg version="1.0" xmlns="http://www.w3.org/2000/svg"
 width="400.000000pt" height="400.000000pt" viewBox="0 0 400.000000 400.000000"
 preserveAspectRatio="xMidYMid meet">

<g transform="translate(0.000000,400.000000) scale(0.100000,-0.100000)"
fill="#000000" stroke="none">
<path d="M565 3900 c-452 -107 -472 -115 -522 -189 -46 -68 -53 -160 -32 -408
70 -852 413 -1613 1001 -2218 610 -629 1417 -1006 2297 -1075 315 -24 391 -8
464 97 26 36 44 102 128 468 55 235 99 442 99 460 0 76 -49 162 -115 200 -73
43 -908 396 -950 401 -51 8 -119 -11 -165 -43 -19 -14 -115 -124 -214 -244
-98 -121 -181 -219 -185 -219 -3 0 -62 32 -131 71 -455 258 -812 624 -1070
1093 -42 77 -43 80 -24 95 414 337 443 363 466 409 17 35 23 64 22 112 0 62
-10 87 -192 510 -105 244 -204 462 -219 484 -16 23 -49 51 -77 65 -86 44 -116
41 -581 -69z m643 -570 l180 -421 -276 -226 c-152 -124 -281 -229 -285 -233
-5 -4 15 -54 44 -111 315 -630 678 -1024 1239 -1346 91 -52 323 -173 333 -173
2 0 106 126 232 280 126 154 235 280 241 280 7 0 197 -79 423 -176 331 -142
411 -180 407 -193 -3 -9 -41 -173 -85 -366 -45 -192 -83 -360 -86 -372 -5 -21
-11 -23 -70 -23 -195 0 -524 46 -756 105 -1079 275 -1954 1081 -2317 2135
-104 302 -161 605 -178 944 l-7 133 114 27 c63 14 236 55 384 90 149 35 273
64 276 65 4 0 88 -188 187 -419z"/>
</g>
</svg>
