<?xml version="1.0" standalone="no"?>
<!DOCTYPE svg PUBLIC "-//W3C//DTD SVG 20010904//EN"
 "http://www.w3.org/TR/2001/REC-SVG-20010904/DTD/svg10.dtd">
<svg version="1.0" xmlns="http://www.w3.org/2000/svg"
 width="309.000000pt" height="309.000000pt" viewBox="0 0 309.000000 309.000000"
 preserveAspectRatio="xMidYMid meet">

<g transform="translate(0.000000,309.000000) scale(0.100000,-0.100000)"
fill="#000000" stroke="none">
<path d="M200 3061 c-69 -22 -121 -65 -156 -131 -18 -33 -19 -66 -19 -510 0
-468 0 -476 22 -515 25 -47 64 -85 113 -111 32 -18 69 -19 480 -22 527 -4 530
-4 606 72 76 76 76 79 72 606 -3 411 -4 448 -22 480 -26 49 -64 88 -111 113
-39 22 -50 22 -500 24 -253 1 -471 -2 -485 -6z m880 -641 l0 -410 -410 0 -410
0 0 410 0 410 410 0 410 0 0 -410z"/>
<path d="M1960 3061 c-69 -21 -121 -65 -156 -131 -18 -33 -19 -66 -19 -510 0
-468 0 -476 22 -515 25 -47 64 -85 113 -111 32 -18 68 -19 489 -22 510 -3 528
-1 594 63 75 73 72 47 75 564 3 536 4 530 -78 604 -31 28 -66 49 -94 56 -51
13 -904 14 -946 2z m890 -641 l0 -410 -415 0 -415 0 0 410 0 410 415 0 415 0
0 -410z"/>
<path d="M210 1301 c-71 -15 -128 -60 -166 -131 -18 -32 -19 -69 -22 -480 -4
-525 -4 -528 71 -605 37 -37 65 -57 94 -64 30 -8 185 -11 505 -9 516 3 490 0
563 75 64 66 66 84 63 594 -3 421 -4 457 -22 489 -26 49 -64 88 -111 113 -39
22 -50 22 -490 24 -247 0 -466 -2 -485 -6z m870 -646 l0 -415 -410 0 -410 0 0
415 0 415 410 0 410 0 0 -415z"/>
<path d="M2305 1299 c-79 -12 -117 -25 -200 -68 -127 -65 -250 -213 -294 -351
-86 -275 45 -593 299 -724 179 -93 426 -89 585 8 l40 25 96 -95 96 -94 52 0
c45 0 57 4 82 29 25 25 29 37 29 82 l0 52 -93 96 -94 96 34 65 c46 91 64 169
64 280 1 367 -334 655 -696 599z m210 -248 c212 -75 312 -312 218 -512 -101
-214 -369 -284 -561 -146 -124 89 -182 263 -137 413 31 107 139 216 245 249
67 20 171 18 235 -4z"/>
</g>
</svg>
