<?xml version="1.0" standalone="no"?>
<!DOCTYPE svg PUBLIC "-//W3C//DTD SVG 20010904//EN"
 "http://www.w3.org/TR/2001/REC-SVG-20010904/DTD/svg10.dtd">
<svg version="1.0" xmlns="http://www.w3.org/2000/svg"
 width="450.000000pt" height="400.000000pt" viewBox="0 0 450.000000 400.000000"
 preserveAspectRatio="xMidYMid meet">

<g transform="translate(0.000000,400.000000) scale(0.100000,-0.100000)"
fill="#000000" stroke="none">
<path d="M50 3987 c-38 -19 -51 -54 -47 -125 2 -48 8 -67 25 -85 22 -22 26
-22 352 -25 182 -1 330 -4 330 -7 0 -2 43 -232 96 -512 52 -279 108 -578 124
-663 16 -85 94 -504 174 -931 80 -426 146 -784 146 -796 0 -11 -7 -26 -15 -33
-24 -20 -72 -111 -89 -169 -21 -71 -21 -211 0 -282 69 -236 311 -389 555 -352
190 30 351 172 404 357 25 87 17 240 -17 324 l-26 62 563 0 563 0 -26 -62
c-34 -84 -42 -237 -17 -324 69 -241 310 -395 556 -357 145 23 286 119 357 244
89 157 84 375 -12 514 -19 28 -47 70 -63 94 -50 77 -91 117 -131 129 -29 9
-344 12 -1205 12 l-1167 0 -5 23 c-11 45 -85 450 -85 463 0 12 214 14 1312 14
l1312 0 44 21 c83 41 75 12 268 939 143 683 175 851 169 887 -8 52 -61 118
-112 140 -27 11 -325 13 -1702 13 l-1670 0 -10 53 c-6 28 -22 112 -36 185 -26
139 -38 173 -77 209 -54 51 -71 53 -455 53 -267 0 -364 -3 -383 -13z m4180
-754 c-1 -10 -69 -346 -153 -748 l-153 -730 -1291 -3 c-1224 -2 -1292 -1
-1297 15 -3 10 -34 176 -70 368 -36 193 -97 518 -136 723 -38 205 -70 377 -70
383 0 5 607 9 1585 9 1503 0 1585 -1 1585 -17z m-2494 -2511 c88 -45 134 -122
134 -222 0 -100 -46 -175 -135 -223 -56 -30 -164 -30 -220 0 -89 48 -135 123
-135 223 0 117 65 204 180 241 40 13 133 3 176 -19z m2000 0 c88 -45 134 -122
134 -222 0 -100 -46 -175 -135 -223 -56 -30 -164 -30 -220 0 -89 48 -135 123
-135 223 0 117 65 204 180 241 40 13 133 3 176 -19z"/>
</g>
</svg>
