<svg id="Layer_2" data-name="Layer 2" xmlns="http://www.w3.org/2000/svg" viewBox="0 0 384 384"><defs><style>.cls-1{fill:#fed42d;}.cls-2{fill:#fcbf29;}.cls-3{fill:#f9d12b;}</style></defs><path class="cls-1" d="M194.86,14.67,251.28,129l126.15,18.33a3.19,3.19,0,0,1,1.77,5.44l-91.29,89,21.55,125.65a3.19,3.19,0,0,1-4.63,3.36L192,311.42"/><path class="cls-2" d="M194.86,14.67,251.28,129l126.15,18.33a3.19,3.19,0,0,1,1.77,5.44l-91.29,89,21.55,125.65a3.19,3.19,0,0,1-4.63,3.36L192,311.42"/><path class="cls-3" d="M194.86,14.67,138.44,129,12.29,147.31a3.19,3.19,0,0,0-1.77,5.44l91.29,89L80.26,367.38a3.18,3.18,0,0,0,4.62,3.36l112.84-59.32"/></svg>