<svg id="Icon" xmlns="http://www.w3.org/2000/svg" width="31.5" height="31.5" viewBox="0 0 31.5 31.5">
  <path id="Fill_1" data-name="Fill 1" d="M14.266,10.724,5.513,9.38,1.584,1.006A1.909,1.909,0,0,0,0,0V26.966l7.805,4.315a1.749,1.749,0,0,0,2.572-1.813L8.869,20.212l6.382-6.536a1.75,1.75,0,0,0-.985-2.952Z" transform="translate(15.75)" fill="#fff" opacity="0.5"/>
  <path id="Fill_1-2" data-name="Fill 1" d="M15.75,0a1.907,1.907,0,0,0-1.586,1.006L10.236,9.38,1.484,10.724A1.751,1.751,0,0,0,.5,13.676L6.88,20.212,5.371,29.468a1.748,1.748,0,0,0,2.572,1.813l7.807-4.315Z" fill="#fff"/>
</svg>
