<?xml version="1.0" standalone="no"?>
<!DOCTYPE svg PUBLIC "-//W3C//DTD SVG 20010904//EN"
 "http://www.w3.org/TR/2001/REC-SVG-20010904/DTD/svg10.dtd">
<svg version="1.0" xmlns="http://www.w3.org/2000/svg"
 width="512.000000pt" height="512.000000pt" viewBox="0 0 512.000000 512.000000"
 preserveAspectRatio="xMidYMid meet">

<g transform="translate(0.000000,512.000000) scale(0.100000,-0.100000)"
fill="#fff" stroke="none">
<path d="M2370 5114 c-19 -2 -78 -9 -130 -15 -265 -30 -544 -114 -805 -243
-273 -135 -476 -280 -684 -487 -208 -208 -352 -411 -486 -684 -126 -256 -198
-484 -242 -772 -23 -151 -23 -555 0 -706 44 -288 116 -516 242 -772 133 -272
280 -478 486 -684 206 -206 412 -353 684 -486 256 -126 484 -198 772 -242 151
-23 555 -23 706 0 288 44 516 116 772 242 272 133 478 280 684 486 206 206
353 412 486 684 126 256 198 484 242 772 23 151 23 555 0 706 -44 288 -116
516 -242 772 -133 272 -280 478 -486 684 -206 206 -412 353 -684 486 -255 126
-490 200 -767 241 -98 14 -474 27 -548 18z m495 -190 c507 -60 999 -300 1370
-669 321 -319 527 -678 635 -1110 51 -201 72 -370 72 -585 0 -644 -243 -1232
-697 -1685 -312 -312 -674 -518 -1100 -625 -201 -51 -370 -72 -585 -72 -644 0
-1232 243 -1685 697 -312 312 -518 674 -625 1100 -51 201 -72 370 -72 585 0
474 134 927 385 1303 109 163 188 258 322 392 300 298 664 506 1070 611 308
79 580 97 910 58z"/>
<path d="M3360 3855 c-703 -271 -1072 -412 -1955 -750 -368 -141 -704 -270
-746 -286 -42 -16 -84 -38 -93 -48 -43 -48 -36 -136 14 -172 14 -10 217 -84
452 -163 l427 -145 208 128 c114 70 567 347 1006 616 701 428 800 486 813 473
8 -8 12 -21 8 -29 -3 -8 -341 -322 -751 -699 -410 -377 -751 -694 -758 -705
-8 -13 -22 -163 -39 -413 -26 -374 -27 -394 -10 -413 31 -34 74 -25 124 27 25
25 134 131 242 235 l197 190 293 -222 c161 -122 347 -264 413 -314 163 -125
180 -135 240 -135 63 0 114 32 138 87 9 21 51 196 92 388 42 193 125 571 185
840 59 270 138 627 175 795 37 168 87 395 111 504 24 110 44 222 44 249 0 66
-36 128 -94 162 -85 50 -86 50 -736 -200z"/>
</g>
</svg>
