<?xml version="1.0" standalone="no"?>
<!DOCTYPE svg PUBLIC "-//W3C//DTD SVG 20010904//EN"
 "http://www.w3.org/TR/2001/REC-SVG-20010904/DTD/svg10.dtd">
<svg version="1.0" xmlns="http://www.w3.org/2000/svg"
 width="350.000000pt" height="400.000000pt" viewBox="0 0 350.000000 400.000000"
 preserveAspectRatio="xMidYMid meet">

<g transform="translate(0.000000,400.000000) scale(0.100000,-0.100000)"
fill="#000000" stroke="none">
<path d="M1577 3985 c-210 -40 -383 -131 -532 -280 -130 -130 -215 -277 -263
-454 -22 -84 -25 -116 -25 -251 0 -135 3 -167 25 -251 47 -175 131 -321 258
-450 202 -204 473 -310 755 -296 258 13 479 111 660 292 130 130 215 277 263
454 22 84 25 116 25 251 0 135 -3 167 -25 251 -48 177 -132 323 -263 454 -129
130 -279 216 -454 262 -123 31 -310 39 -424 18z m317 -250 c154 -33 279 -101
388 -212 101 -104 164 -215 199 -354 18 -70 18 -268 0 -338 -71 -279 -283
-491 -562 -562 -70 -18 -268 -18 -338 0 -238 61 -436 230 -525 451 -175 430
85 915 544 1014 86 19 208 19 294 1z"/>
<path d="M880 1736 c-160 -29 -271 -73 -409 -162 -209 -137 -368 -357 -438
-610 -26 -97 -27 -105 -27 -389 l-1 -290 28 -61 c36 -77 113 -154 192 -191
l60 -28 1465 0 1465 0 60 28 c79 37 156 114 192 191 28 61 28 63 31 296 5 308
-11 418 -83 591 -94 225 -301 441 -520 539 -237 108 -449 125 -685 55 -237
-71 -228 -69 -460 -69 -233 0 -224 -2 -460 69 -145 43 -282 54 -410 31z m385
-284 c205 -62 244 -67 495 -67 247 1 274 5 525 81 111 33 127 35 210 30 146
-8 270 -48 388 -126 173 -112 283 -266 344 -480 12 -41 17 -116 20 -296 5
-269 2 -287 -60 -324 -31 -20 -61 -20 -1435 -20 -1549 0 -1441 -5 -1482 63
-18 29 -20 51 -20 244 0 228 10 308 53 425 76 209 255 389 465 465 176 65 297
66 497 5z"/>
</g>
</svg>
